<?xml version="1.0" standalone="no"?>
<!DOCTYPE svg PUBLIC "-//W3C//DTD SVG 20010904//EN"
 "http://www.w3.org/TR/2001/REC-SVG-20010904/DTD/svg10.dtd">
<svg version="1.0" xmlns="http://www.w3.org/2000/svg"
 width="1668.000000pt" height="658.000000pt" viewBox="0 0 1668.000000 658.000000"
 preserveAspectRatio="xMidYMid meet">

<g transform="translate(0.000000,658.000000) scale(0.100000,-0.100000)"
fill="#3a5f6c" stroke="#3a5f6c">
<path d="M8665 6093 c-1097 -44 -2088 -370 -2765 -910 -114 -91 -314 -286
-412 -403 -289 -344 -478 -763 -532 -1180 -21 -160 -21 -460 0 -622 88 -682
513 -1315 1179 -1753 511 -337 1145 -568 1845 -674 680 -102 1567 -89 2315 35
494 82 905 198 1313 371 108 47 132 60 132 77 0 39 -103 861 -109 868 -3 3
-44 -27 -91 -68 -421 -369 -1070 -655 -1740 -768 -1102 -186 -2252 -4 -3054
483 -326 197 -619 473 -809 761 -395 599 -394 1362 2 1963 137 207 357 438
573 600 804 604 2053 847 3288 641 401 -67 819 -201 1095 -353 217 -118 411
-293 524 -471 l45 -70 83 0 83 0 -2 462 -3 462 -140 72 c-472 239 -1091 396
-1800 453 -303 25 -743 35 -1020 24z"/>
</g>
</svg>
